<?xml version="1.0" encoding="UTF-8"?>
<svg version="1.1" xmlns="http://www.w3.org/2000/svg" width="500" height="500">
<path d="M0 0 C165 0 330 0 500 0 C500 165 500 330 500 500 C335 500 170 500 0 500 C0 335 0 170 0 0 Z " fill="#14967F" transform="translate(0,0)"/>
<path d="M0 0 C0.85980469 0.57363281 1.71960938 1.14726563 2.60546875 1.73828125 C3.33121094 2.19847656 4.05695313 2.65867187 4.8046875 3.1328125 C16.04515404 10.79576317 24.41426881 23.98339169 27.98046875 37.05078125 C29.46167791 45.78991528 29.74117 54.23785711 29.703125 63.0859375 C29.70100258 64.96459755 29.70100258 64.96459755 29.69883728 66.88121033 C29.69421462 70.18059496 29.6852595 73.47992901 29.6741333 76.77929688 C29.66382929 80.15819689 29.65932057 83.53710436 29.65429688 86.91601562 C29.643312 93.52345698 29.62660719 100.13086499 29.60546875 106.73828125 C30.16008789 106.7225708 30.71470703 106.70686035 31.28613281 106.69067383 C33.80914027 106.62815263 36.33198451 106.58923783 38.85546875 106.55078125 C39.72816406 106.52564453 40.60085938 106.50050781 41.5 106.47460938 C42.34433594 106.46494141 43.18867188 106.45527344 44.05859375 106.4453125 C44.83364258 106.42960205 45.60869141 106.4138916 46.40722656 106.39770508 C49.30493839 106.84665088 50.58710234 107.60828183 52.60546875 109.73828125 C53.10667419 112.35186768 53.10667419 112.35186768 53.10717773 115.53222656 C53.11655869 116.72487122 53.12593964 117.91751587 53.13560486 119.14630127 C53.11875389 121.08675323 53.11875389 121.08675323 53.1015625 123.06640625 C53.10171767 124.41624021 53.10320954 125.76607462 53.10597229 127.11590576 C53.10735861 129.95409714 53.09478028 132.79178478 53.07202148 135.62988281 C53.04396097 139.22364045 53.04628083 142.81654067 53.0591116 146.41035843 C53.06616514 149.20586111 53.058166 152.00117519 53.04585457 154.79665375 C53.03927889 156.75205918 53.04343605 158.70749157 53.04795837 160.66290283 C52.76786904 187.83390292 42.11094646 210.74566271 23.35546875 230.0546875 C8.28780063 244.20832428 -11.75509171 252.73828125 -32.39453125 252.73828125 C-32.39453125 260.65828125 -32.39453125 268.57828125 -32.39453125 276.73828125 C-25.33412114 276.61988832 -25.33412114 276.61988832 -18.27441406 276.46801758 C-16.94941895 276.45677856 -16.94941895 276.45677856 -15.59765625 276.4453125 C-14.69692383 276.42960205 -13.79619141 276.4138916 -12.86816406 276.39770508 C-9.88342405 276.80865181 -8.53385466 277.64038192 -6.39453125 279.73828125 C-5.94158176 282.84422058 -5.71827408 284.7820574 -7.57080078 287.40151978 C-10.10941178 289.26227576 -11.88026953 289.1190987 -15.01171875 289.12646484 C-16.1630127 289.13592133 -17.31430664 289.14537781 -18.50048828 289.15512085 C-20.36616455 289.14601181 -20.36616455 289.14601181 -22.26953125 289.13671875 C-23.54554199 289.13958893 -24.82155273 289.14245911 -26.13623047 289.14541626 C-28.83657241 289.1474596 -31.53610206 289.14341517 -34.23632812 289.12939453 C-37.69672355 289.11230214 -41.15642096 289.12214432 -44.61679077 289.14011192 C-47.91772931 289.15356141 -51.21858361 289.14414369 -54.51953125 289.13671875 C-55.76331543 289.14279144 -57.00709961 289.14886414 -58.28857422 289.15512085 C-59.43986816 289.14566437 -60.59116211 289.13620789 -61.77734375 289.12646484 C-63.29932373 289.12288467 -63.29932373 289.12288467 -64.85205078 289.11923218 C-67.39453125 288.73828125 -67.39453125 288.73828125 -69.21826172 287.40151978 C-71.07078842 284.7820574 -70.84748074 282.84422058 -70.39453125 279.73828125 C-68.25520784 277.64038192 -66.90563845 276.80865181 -63.92089844 276.39770508 C-63.02016602 276.41341553 -62.11943359 276.42912598 -61.19140625 276.4453125 C-60.30807617 276.45280518 -59.42474609 276.46029785 -58.51464844 276.46801758 C-57.40250977 276.49532959 -56.29037109 276.5226416 -55.14453125 276.55078125 C-49.82328125 276.64359375 -49.82328125 276.64359375 -44.39453125 276.73828125 C-44.39453125 268.81828125 -44.39453125 260.89828125 -44.39453125 252.73828125 C-47.36453125 252.73828125 -50.33453125 252.73828125 -53.39453125 252.73828125 C-76.16164196 249.1632804 -96.46651007 236.88080305 -110.69921875 218.8125 C-124.37627714 199.95473768 -129.71184791 180.22834698 -129.6953125 157.01171875 C-129.69921195 155.64742913 -129.70354913 154.28314069 -129.70829773 152.91885376 C-129.71568112 150.09023045 -129.71552212 147.26173223 -129.71020508 144.43310547 C-129.70435075 140.80937743 -129.72152066 137.18615067 -129.74454975 133.56250572 C-129.75925437 130.75897235 -129.76016451 127.95556171 -129.75704002 125.15199661 C-129.75780083 123.1671753 -129.77165888 121.18237296 -129.78572083 119.19760132 C-129.77949203 117.99850128 -129.77326324 116.79940125 -129.7668457 115.56396484 C-129.76747513 114.508414 -129.76810455 113.45286316 -129.76875305 112.36532593 C-129.39453125 109.73828125 -129.39453125 109.73828125 -128.16300964 107.89248657 C-125.87299471 106.3978981 -124.44961302 106.39327969 -121.7265625 106.4453125 C-120.83388672 106.45498047 -119.94121094 106.46464844 -119.02148438 106.47460938 C-118.09271484 106.49974609 -117.16394531 106.52488281 -116.20703125 106.55078125 C-115.26666016 106.56431641 -114.32628906 106.57785156 -113.35742188 106.59179688 C-111.03588087 106.62715029 -108.71549472 106.67649451 -106.39453125 106.73828125 C-106.40119308 105.96313171 -106.40785492 105.18798218 -106.41471863 104.38934326 C-106.47517363 97.03502816 -106.52067864 89.68083587 -106.54996777 82.32633591 C-106.56553249 78.54654979 -106.58659934 74.76697134 -106.62084961 70.98730469 C-106.65377546 67.33033497 -106.67145312 63.67356327 -106.67916298 60.0164566 C-106.6846476 58.63079975 -106.69535504 57.24515204 -106.71172142 55.85958099 C-106.91741165 37.70097559 -102.34142459 24.3951748 -90.39453125 10.73828125 C-89.86214844 10.11050781 -89.32976562 9.48273438 -88.78125 8.8359375 C-66.74220647 -15.28122925 -26.44300545 -16.66515998 0 0 Z " fill="#E1FBD5" transform="translate(288.39453125,111.26171875)"/>
<path d="M0 0 C1.40668945 -0.01160156 1.40668945 -0.01160156 2.84179688 -0.0234375 C12.01286809 0.0020554 19.75074548 1.60544273 27.9375 5.75 C28.62440918 6.09748291 29.31131836 6.44496582 30.01904297 6.80297852 C44.40243846 14.42137358 51.53708897 25.05511968 57.0625 40.25 C57.0625 58.4 57.0625 76.55 57.0625 95.25 C19.7725 95.25 -17.5175 95.25 -55.9375 95.25 C-55.9375 31.0763773 -55.9375 31.0763773 -40.9375 15.25 C-29.79324527 4.64085562 -15.06777411 -0.12375995 0 0 Z " fill="#14967F" transform="translate(248.9375,111.75)"/>
<path d="M0 0 C0.85980469 0.57363281 1.71960938 1.14726563 2.60546875 1.73828125 C3.33121094 2.19847656 4.05695313 2.65867187 4.8046875 3.1328125 C16.04515404 10.79576317 24.41426881 23.98339169 27.98046875 37.05078125 C29.45848938 45.77110296 29.75320969 54.22146538 29.73828125 63.05078125 C29.73923798 64.30084961 29.7401947 65.55091797 29.74118042 66.83886719 C29.74203031 70.13293239 29.73803544 73.42694947 29.73242188 76.7210083 C29.72980584 79.42296069 29.73464 82.12488016 29.73941231 84.826828 C29.74387815 88.04731533 29.7407612 91.2677929 29.73828125 94.48828125 C29.74030548 95.70169189 29.74232971 96.91510254 29.74441528 98.1652832 C29.73968704 99.83337036 29.73968704 99.83337036 29.73486328 101.53515625 C29.73406769 102.51838867 29.73327209 103.50162109 29.73245239 104.51464844 C29.60546875 106.73828125 29.60546875 106.73828125 28.60546875 107.73828125 C26.85920351 107.83457722 25.1090097 107.86015664 23.36009216 107.85853577 C22.2228067 107.85991043 21.08552124 107.8612851 19.91377258 107.86270142 C18.02564095 107.8573085 18.02564095 107.8573085 16.09936523 107.85180664 C14.78248718 107.85195267 13.46560913 107.85209869 12.10882568 107.85224915 C8.48708607 107.85253712 4.86537929 107.84664049 1.24364734 107.83967519 C-2.53735009 107.83344155 -6.3183482 107.83283784 -10.09934998 107.83164978 C-17.26397415 107.82853649 -24.42858315 107.82032314 -31.59320062 107.81030029 C-39.74784287 107.79913907 -47.90248582 107.79362868 -56.05713379 107.78860486 C-72.83627518 107.77814053 -89.61540128 107.76054114 -106.39453125 107.73828125 C-106.46445558 99.47061484 -106.51755559 91.20307476 -106.54996777 82.93518448 C-106.56553452 79.09486597 -106.58660525 75.25475176 -106.62084961 71.41455078 C-106.65376798 67.69922669 -106.67145161 63.98409743 -106.67916298 60.26863861 C-106.6846489 58.86065357 -106.69535902 57.45267756 -106.71172142 56.04477692 C-106.91506705 37.79995304 -102.40408453 24.46680348 -90.39453125 10.73828125 C-89.86214844 10.11050781 -89.32976562 9.48273438 -88.78125 8.8359375 C-66.74220647 -15.28122925 -26.44300545 -16.66515998 0 0 Z M-83.39453125 18.73828125 C-102.01100964 41.36857942 -95.39453125 65.5981156 -95.39453125 95.73828125 C-58.10453125 95.73828125 -20.81453125 95.73828125 17.60546875 95.73828125 C21.13690773 50.26796554 21.13690773 50.26796554 3.6484375 16.55078125 C-0.84348556 12.15333458 -5.83913028 9.199711 -11.39453125 6.36328125 C-12.37292969 5.86211792 -12.37292969 5.86211792 -13.37109375 5.35083008 C-36.23663468 -5.70900888 -66.18306839 0.30008346 -83.39453125 18.73828125 Z " fill="#DCF8D3" transform="translate(288.39453125,111.26171875)"/>
<path d="M0 0 C3.63 0 7.26 0 11 0 C10.99887207 1.43496826 10.99774414 2.86993652 10.99658203 4.34838867 C11.00031045 9.7779696 11.04362223 15.20669275 11.09765625 20.63598633 C11.11559551 22.96600742 11.1234258 25.2961329 11.12011719 27.6262207 C11.09993434 51.04336704 14.12279004 73.19452479 30.78125 90.91015625 C44.82320358 104.1362921 60.58185187 110.18415957 79.625 110.375 C80.59091064 110.38901855 81.55682129 110.40303711 82.55200195 110.41748047 C99.23076315 110.30650688 116.34139999 101.73455181 128 90 C144.60640584 70.54025982 146.75546123 48.99500834 146.8125 24.375 C146.83569865 21.99997758 146.86107487 19.62497539 146.88867188 17.25 C146.95083361 11.49992414 146.98371268 5.75038124 147 0 C150.63 0 154.26 0 158 0 C158.12484461 7.6639227 158.21492328 15.3272361 158.2746582 22.99194336 C158.29959516 25.59198333 158.33355723 28.19195474 158.37719727 30.79174805 C158.78930236 55.99803503 155.56734532 77.58346044 138 97 C137.33484375 97.75796875 136.6696875 98.5159375 135.984375 99.296875 C126.65628192 109.31593794 115.00786187 115.94001863 102 120 C100.99839844 120.31839844 99.99679687 120.63679688 98.96484375 120.96484375 C78.90566868 126.46780328 57.40958044 123.02708082 39.390625 113.0625 C20.83735947 102.16886302 8.7220804 85.72776888 2.13671875 65.32543945 C-1.16276925 52.49444974 -0.32364866 39.26891118 -0.1875 26.125 C-0.17242713 23.58724752 -0.15874333 21.04948639 -0.14648438 18.51171875 C-0.11368265 12.3409295 -0.06204288 6.1705617 0 0 Z " fill="#169780" transform="translate(171,230)"/>
<path d="M0 0 C3.375 0.875 3.375 0.875 5.375 2.875 C5.62947559 5.21826744 5.62947559 5.21826744 5.63569641 8.2137146 C5.64278122 9.34659409 5.64986603 10.47947357 5.65716553 11.64668274 C5.65468811 12.89555771 5.65221069 14.14443268 5.6496582 15.43115234 C5.65476913 16.74175125 5.65988007 18.05235016 5.66514587 19.40266418 C5.67856593 23.00396736 5.67911111 26.60516577 5.67658257 30.20648909 C5.67551465 33.21098289 5.68039176 36.21545535 5.685188 39.2199446 C5.69629409 46.30810423 5.69671475 53.39621087 5.69067383 60.484375 C5.68463525 67.79959569 5.69693947 75.11462398 5.7182439 82.42981184 C5.73585317 88.70673296 5.74186224 94.98359282 5.73860615 101.26053774 C5.73679169 105.01099856 5.73944539 108.76132222 5.75332069 112.51176071 C5.76821582 116.69465388 5.75893483 120.8771551 5.74731445 125.06005859 C5.75495819 126.3048851 5.76260193 127.54971161 5.77047729 128.83226013 C5.76346298 129.97077927 5.75644867 131.1092984 5.7492218 132.28231812 C5.74938954 133.27156973 5.74955729 134.26082134 5.74973011 135.28005028 C5.3085114 138.33542356 4.55819521 139.70938736 2.375 141.875 C-1.125 142.375 -1.125 142.375 -4.625 141.875 C-6.79503406 139.71725826 -7.55626292 138.34016954 -8.00531673 135.30125427 C-8.00774663 134.32197464 -8.01017653 133.34269501 -8.01268005 132.33374023 C-8.02258469 131.20652557 -8.03248932 130.07931091 -8.04269409 128.91793823 C-8.03819244 127.68560455 -8.0336908 126.45327087 -8.02905273 125.18359375 C-8.03591599 123.88245636 -8.04277924 122.58131897 -8.04985046 121.24075317 C-8.0677946 117.67464806 -8.06661139 114.10878883 -8.06090808 110.54265213 C-8.05781844 107.56538717 -8.06390607 104.58816959 -8.06994683 101.61091137 C-8.08399415 94.58789824 -8.0824287 87.56500674 -8.07104492 80.54199219 C-8.05955924 73.29596583 -8.07364617 66.0503094 -8.1004414 58.80433178 C-8.12258796 52.58255753 -8.12923829 46.3608995 -8.12336498 40.13908863 C-8.11999216 36.42327325 -8.1224319 32.70769509 -8.13961601 28.99191284 C-8.1579357 24.84983835 -8.14390901 20.70848543 -8.12670898 16.56640625 C-8.13637695 15.33407257 -8.14604492 14.10173889 -8.15600586 12.83206177 C-8.14617172 11.70484711 -8.13633759 10.57763245 -8.12620544 9.41625977 C-8.12599616 8.43698013 -8.12578688 7.4577005 -8.12557125 6.44874573 C-7.17231436 1.54746375 -4.87148377 -0.1679822 0 0 Z " fill="#DDF9D3" transform="translate(421.625,179.125)"/>
<path d="M0 0 C2.64252672 2.05646329 3.85409785 3.24982702 4.50057125 6.57374573 C4.50078053 7.55302536 4.50098982 8.53230499 4.50120544 9.54125977 C4.51103958 10.66847443 4.52087372 11.79568909 4.53100586 12.95706177 C4.52133789 14.18939545 4.51166992 15.42172913 4.50170898 16.69140625 C4.50711197 17.99254364 4.51251495 19.29368103 4.51808167 20.63424683 C4.53204234 24.20045014 4.52086269 27.76617133 4.50437045 31.33234787 C4.49051849 35.06474943 4.49698019 38.79712303 4.50050354 42.52954102 C4.50320556 48.79744231 4.48973092 55.06515209 4.46655273 61.33300781 C4.43994292 68.57899064 4.43819586 75.82465327 4.4499411 83.07066822 C4.4607213 90.04177254 4.45452994 97.01276107 4.44038582 103.9838562 C4.43462808 106.95029437 4.434707 109.91664775 4.43945122 112.88308716 C4.44511073 117.02509997 4.42590078 121.16663478 4.40405273 125.30859375 C4.40855438 126.54092743 4.41305603 127.77326111 4.41769409 129.04293823 C4.40778946 130.17015289 4.39788483 131.29736755 4.38768005 132.45874023 C4.38525016 133.43801987 4.38282026 134.4172995 4.38031673 135.42625427 C3.93126292 138.46516954 3.17003406 139.84225826 1 142 C-2.5 142.5 -2.5 142.5 -6 142 C-8.18074944 139.83573556 -8.93301623 138.45992484 -9.37752342 135.40784359 C-9.3786545 134.41989079 -9.37978558 133.431938 -9.38095093 132.41404724 C-9.3894104 131.27697327 -9.39786987 130.13989929 -9.40658569 128.96836853 C-9.400513 127.72511307 -9.39444031 126.4818576 -9.38818359 125.20092773 C-9.39344055 123.88843048 -9.39869751 122.57593323 -9.40411377 121.22366333 C-9.41778685 117.62662147 -9.41248925 114.02983783 -9.40297651 110.43279147 C-9.39538141 106.66922227 -9.40242496 102.90567517 -9.40713501 99.1421051 C-9.41259233 92.82296783 -9.4054009 86.50393576 -9.39111328 80.18481445 C-9.37477968 72.87633798 -9.3800804 65.56811248 -9.3965925 58.25964206 C-9.41019965 51.98608386 -9.41213104 45.71260128 -9.40427649 39.43903309 C-9.39959661 35.69143976 -9.39898383 31.94396448 -9.40888596 28.19637871 C-9.41914881 24.02066006 -9.40493092 19.84537532 -9.38818359 15.66967773 C-9.39425629 14.42439804 -9.40032898 13.17911835 -9.40658569 11.89610291 C-9.39812622 10.76184875 -9.38966675 9.6275946 -9.38095093 8.45896912 C-9.37981985 7.47139335 -9.37868877 6.48381758 -9.37752342 5.46631527 C-9 3 -9 3 -7.65978432 1.18615818 C-5.0346702 -0.68986906 -3.12931976 -0.44704568 0 0 Z " fill="#DDF9D3" transform="translate(82,179)"/>
<path d="M0 0 C2.05083312 1.54803452 2.89244048 2.43526159 3.37752342 4.98217678 C3.37922004 6.12063344 3.37922004 6.12063344 3.38095093 7.28208923 C3.3894104 8.15550461 3.39786987 9.02891998 3.40658569 9.92880249 C3.400513 10.88420929 3.39444031 11.83961609 3.38818359 12.82397461 C3.39344055 13.83235886 3.39869751 14.8407431 3.40411377 15.87968445 C3.41734242 19.22072739 3.40856468 22.56129576 3.3984375 25.90234375 C3.40045756 28.22018017 3.40336843 30.53801598 3.40713501 32.85585022 C3.41156239 37.71735679 3.40511446 42.57869816 3.39111328 47.44018555 C3.37403087 53.67597847 3.38385425 59.91138378 3.40183067 66.14716244 C3.41266536 70.93493068 3.40922341 75.72260688 3.4014473 80.51037788 C3.39944393 82.80971891 3.40190931 85.10906826 3.40888596 87.40839958 C3.416494 90.62136884 3.4049043 93.83370855 3.38818359 97.04663086 C3.39729263 98.47670471 3.39729263 98.47670471 3.40658569 99.93566895 C3.34483665 106.33165709 3.34483665 106.33165709 1.66323853 109.59083557 C0 111 0 111 -3 111.5 C-6 111 -6 111 -7.66323853 109.59083557 C-9.75994646 105.5271147 -9.41689546 101.55425085 -9.38818359 97.04663086 C-9.39344055 96.03649429 -9.39869751 95.02635773 -9.40411377 93.98561096 C-9.41732249 90.64519815 -9.40857301 87.30526144 -9.3984375 83.96484375 C-9.40045782 81.64604094 -9.4033689 79.32723874 -9.40713501 77.00843811 C-9.41155942 72.14871166 -9.40512278 67.2891506 -9.39111328 62.42944336 C-9.37401199 56.19245985 -9.38386808 49.95586335 -9.40183067 43.718894 C-9.4126571 38.93116831 -9.40922755 34.14353478 -9.4014473 29.35580635 C-9.39944263 27.0556388 -9.40191386 24.75546295 -9.40888596 22.4553051 C-9.41648256 19.24463512 -9.40492137 16.03459735 -9.38818359 12.82397461 C-9.39729263 11.39086441 -9.39729263 11.39086441 -9.40658569 9.92880249 C-9.39812622 9.05538712 -9.38966675 8.18197174 -9.38095093 7.28208923 C-9.37981985 6.52311812 -9.37868877 5.76414701 -9.37752342 4.98217678 C-8.38771833 -0.21476879 -4.66315951 -0.58289494 0 0 Z " fill="#DBF8D2" transform="translate(397,195)"/>
<path d="M0 0 C2.05083312 1.54803452 2.89244048 2.43526159 3.37752342 4.98217678 C3.37922004 6.12063344 3.37922004 6.12063344 3.38095093 7.28208923 C3.3894104 8.15550461 3.39786987 9.02891998 3.40658569 9.92880249 C3.400513 10.88420929 3.39444031 11.83961609 3.38818359 12.82397461 C3.39344055 13.83235886 3.39869751 14.8407431 3.40411377 15.87968445 C3.41734242 19.22072739 3.40856468 22.56129576 3.3984375 25.90234375 C3.40045756 28.22018017 3.40336843 30.53801598 3.40713501 32.85585022 C3.41156239 37.71735679 3.40511446 42.57869816 3.39111328 47.44018555 C3.37403087 53.67597847 3.38385425 59.91138378 3.40183067 66.14716244 C3.41266536 70.93493068 3.40922341 75.72260688 3.4014473 80.51037788 C3.39944393 82.80971891 3.40190931 85.10906826 3.40888596 87.40839958 C3.416494 90.62136884 3.4049043 93.83370855 3.38818359 97.04663086 C3.39729263 98.47670471 3.39729263 98.47670471 3.40658569 99.93566895 C3.34483665 106.33165709 3.34483665 106.33165709 1.66323853 109.59083557 C0 111 0 111 -3 111.5 C-6 111 -6 111 -7.66323853 109.59083557 C-9.75994646 105.5271147 -9.41689546 101.55425085 -9.38818359 97.04663086 C-9.39344055 96.03649429 -9.39869751 95.02635773 -9.40411377 93.98561096 C-9.41732249 90.64519815 -9.40857301 87.30526144 -9.3984375 83.96484375 C-9.40045782 81.64604094 -9.4033689 79.32723874 -9.40713501 77.00843811 C-9.41155942 72.14871166 -9.40512278 67.2891506 -9.39111328 62.42944336 C-9.37401199 56.19245985 -9.38386808 49.95586335 -9.40183067 43.718894 C-9.4126571 38.93116831 -9.40922755 34.14353478 -9.4014473 29.35580635 C-9.39944263 27.0556388 -9.40191386 24.75546295 -9.40888596 22.4553051 C-9.41648256 19.24463512 -9.40492137 16.03459735 -9.38818359 12.82397461 C-9.39729263 11.39086441 -9.39729263 11.39086441 -9.40658569 9.92880249 C-9.39812622 9.05538712 -9.38966675 8.18197174 -9.38095093 7.28208923 C-9.37981985 6.52311812 -9.37868877 5.76414701 -9.37752342 4.98217678 C-8.38771833 -0.21476879 -4.66315951 -0.58289494 0 0 Z " fill="#DBF8D2" transform="translate(109,195)"/>
<path d="M0 0 C1.670625 0.37125 1.670625 0.37125 3.375 0.75 C4.55964565 3.1192913 4.52032005 4.60016764 4.55200195 7.24389648 C4.56483719 8.17503769 4.57767242 9.10617889 4.59089661 10.0655365 C4.59828354 11.07387039 4.60567047 12.08220428 4.61328125 13.12109375 C4.62538887 14.67099754 4.62538887 14.67099754 4.63774109 16.25221252 C4.65158524 18.44034138 4.66230591 20.62849186 4.67016602 22.81665039 C4.68741257 26.1704971 4.73130014 29.52336681 4.77539062 32.87695312 C4.78551431 34.99999273 4.79403142 37.12304073 4.80078125 39.24609375 C4.81828934 40.25240341 4.83579742 41.25871307 4.85383606 42.29551697 C4.85091049 43.22981033 4.84798492 44.1641037 4.8449707 45.12670898 C4.85083694 45.94896469 4.85670319 46.7712204 4.86274719 47.61839294 C4.375 49.75 4.375 49.75 2.50968933 51.55067444 C0.375 52.75 0.375 52.75 -2.25 52.5625 C-4.625 51.75 -4.625 51.75 -6.625 49.75 C-6.88569641 47.70068359 -6.88569641 47.70068359 -6.8996582 45.1484375 C-6.90919022 44.19404785 -6.91872223 43.2396582 -6.92854309 42.25634766 C-6.92763168 41.22300293 -6.92672028 40.1896582 -6.92578125 39.125 C-6.93006638 38.06716309 -6.9343515 37.00932617 -6.93876648 35.91943359 C-6.94451656 33.68002031 -6.94500508 31.44058835 -6.94067383 29.20117188 C-6.93751288 25.76400097 -6.9609687 22.32768945 -6.98632812 18.890625 C-6.98860084 16.71875109 -6.98930474 14.54687486 -6.98828125 12.375 C-6.997491 11.34165527 -7.00670074 10.30831055 -7.01618958 9.24365234 C-7.00996078 8.2892627 -7.00373199 7.33487305 -6.99731445 6.3515625 C-6.99794388 5.50932129 -6.9985733 4.66708008 -6.9992218 3.79931641 C-6.87572861 3.12304199 -6.75223541 2.44676758 -6.625 1.75 C-3.625 -0.25 -3.625 -0.25 0 0 Z " fill="#E1FBD5" transform="translate(371.625,224.25)"/>
<path d="M0 0 C3.375 0.75 3.375 0.75 4.375 1.75 C4.47850194 3.24321297 4.51350739 4.74125657 4.52026367 6.23803711 C4.52664352 7.19250229 4.53302338 8.14696747 4.53959656 9.13035583 C4.54070938 10.16886185 4.5418222 11.20736786 4.54296875 12.27734375 C4.54629715 13.33659561 4.54962555 14.39584747 4.55305481 15.48719788 C4.55812869 17.73259038 4.56046299 19.97799045 4.56030273 22.22338867 C4.56248841 25.66923378 4.58063721 29.11475852 4.59960938 32.56054688 C4.60254329 34.73697807 4.6045281 36.91341079 4.60546875 39.08984375 C4.61265427 40.12632553 4.61983978 41.16280731 4.62724304 42.23069763 C4.62416641 43.18831497 4.62108978 44.14593231 4.61791992 45.13256836 C4.61934494 45.97782578 4.62076996 46.82308319 4.62223816 47.69395447 C4.375 49.75 4.375 49.75 2.375 51.75 C-1.125 52 -1.125 52 -4.625 51.75 C-7.07807634 49.29692366 -6.88075666 48.62609362 -6.8996582 45.25610352 C-6.90919022 44.32496231 -6.91872223 43.39382111 -6.92854309 42.4344635 C-6.92763168 41.42612961 -6.92672028 40.41779572 -6.92578125 39.37890625 C-6.93006638 38.34563705 -6.9343515 37.31236786 -6.93876648 36.24778748 C-6.94451683 34.05964898 -6.94500488 31.87149137 -6.94067383 29.68334961 C-6.93751609 26.32958441 -6.9609571 22.97670276 -6.98632812 19.62304688 C-6.9886012 17.50000112 -6.98930457 15.37695298 -6.98828125 13.25390625 C-6.997491 12.24759659 -7.00670074 11.24128693 -7.01618958 10.20448303 C-7.00996078 9.27018967 -7.00373199 8.3358963 -6.99731445 7.37329102 C-6.99794388 6.55103531 -6.9985733 5.7287796 -6.9992218 4.88160706 C-6.21532457 0.41644534 -4.32799904 -0.29848269 0 0 Z " fill="#E1FBD5" transform="translate(130.625,224.25)"/>
</svg>
